<svg clip-rule="evenodd" fill-rule="evenodd" stroke-linejoin="round" stroke-miterlimit="1.41421" viewBox="0 0 1874 390" xmlns="http://www.w3.org/2000/svg"><path d="m125.448 76.643h108.195c-11.634-31.564-37.195-56.479-69.217-67.302z" fill="#ff5c0d" fill-rule="nonzero"/><g fill="#fff"><path d="m163.481 131.484-54.131 93.405c6.251 1.083 12.678 1.656 19.236 1.656 28.27 0 54.121-10.515 73.837-27.819zm-31.76 21.891-38.975 67.301c-32.025-10.825-57.583-35.738-69.217-67.301zm106.566-60.289c1.423 7.091 2.178 14.419 2.178 21.923 0 27.18-9.81 52.116-26.075 71.487l-54.064-93.41zm-141.444 43.846h-77.961c-1.422-7.092-2.174-14.422-2.174-21.923 0-27.18 9.806-52.117 26.073-71.49zm-3.154-38.398 54.125-93.407c-6.248-1.084-12.672-1.654-19.228-1.654-28.272 0-54.123 10.512-73.838 27.817z"/><g fill-rule="nonzero"><path d="m345.377 204.897-33.301 1.3c-5.03 0-7.545-.997-7.545-2.992 0-1.994 3.165-3.555 9.496-4.683 6.331-1.127 11.144-3.122 14.439-5.983 3.296-2.862 4.944-7.242 4.944-13.139v-117.595c0-6.071-1.258-10.407-3.773-13.008-2.515-2.602-6.851-4.467-13.008-5.594s-9.236-2.905-9.236-5.333c0-1.908 2.515-2.862 7.545-2.862l30.439.78 28.358-.78c5.03 0 7.545.954 7.545 2.862 0 2.428-3.122 4.206-9.366 5.333s-10.753 3.035-13.528 5.724c-2.776 2.688-4.163 6.981-4.163 12.878v117.595c0 5.897 1.691 10.277 5.073 13.139 3.382 2.861 8.239 4.856 14.57 5.983 6.33 1.128 9.496 2.689 9.496 4.683 0 1.995-2.515 2.992-7.545 2.992z"/><path d="m493.412 204.376-21.334 1.301c-3.469 0-5.203-.824-5.203-2.472 0-1.647 1.995-3.165 5.984-4.552.173 0 .52-.087 1.041-.261 5.723-1.734 9.019-4.076 9.886-7.024.173-.867.26-1.735.26-2.602v-54.635c0-7.458-2.168-13.355-6.504-17.691s-10.71-6.504-19.122-6.504-15.307 1.821-20.684 5.463c-5.376 3.643-8.065 10.233-8.065 19.773v53.594c0 3.469 1.041 5.724 3.122 6.765 2.255 1.04 5.16 2.168 8.716 3.382 3.555 1.214 5.333 2.645 5.333 4.292 0 1.648-1.734 2.472-5.203 2.472l-21.074-1.301-21.073 1.301c-3.469 0-5.203-.824-5.203-2.472 0-1.647 1.431-2.948 4.292-3.902 2.862-.954 4.51-1.474 4.943-1.561.434-.087 1.345-.477 2.732-1.171 1.388-.694 2.255-1.301 2.602-1.821 1.734-1.908 2.602-3.902 2.602-5.984v-55.936c0-11.1-3.556-17.344-10.667-18.732-1.388-.346-2.082-1.474-2.082-3.382s.607-2.948 1.822-3.122c9.019-2.081 18.558-6.851 28.618-14.309.173-.173.477-.26.91-.26.434 0 .911.78 1.431 2.341l-1.821 16.911c0 1.214.087 1.908.26 2.082 4.857-3.99 11.404-7.849 19.643-11.578s16.26-5.593 24.065-5.593 14.526 3.468 20.163 10.406 8.456 15.523 8.456 25.757v55.415c0 3.469 1.04 5.724 3.122 6.765 2.254 1.04 5.16 2.168 8.715 3.382 3.556 1.214 5.334 2.645 5.334 4.292 0 1.648-1.735 2.472-5.204 2.472z"/><path d="m615.43 204.636-31.22 1.561c-5.03 0-7.545-1.084-7.545-3.252s2.862-4.206 8.586-6.114c10.406-3.122 17.865-9.799 22.374-20.032 16.651-38.158 32.868-78.918 48.651-122.279 2.255-5.723 3.382-9.669 3.382-11.837s.087-3.252.261-3.252c6.244-2.082 9.886-3.773 10.927-5.074 1.04-1.3 1.734-2.298 2.081-2.992.694-1.561 1.301-2.341 1.821-2.341.867 0 1.735 1.214 2.602 3.642 12.835 40.413 28.271 86.722 46.309 138.929 3.296 9.54 6.938 16 10.927 19.383 3.99 3.382 8.976 5.593 14.96 6.634s8.976 3.035 8.976 5.984c0 1.734-2.515 2.601-7.545 2.601l-36.163-1.561-27.318.261c-5.03 0-7.545-1.041-7.545-3.122 0-2.429 2.862-4.076 8.586-4.944 10.58-1.734 15.87-5.637 15.87-11.707 0-5.203-3.295-18.819-9.886-40.846-.521-1.908-2.862-2.862-7.025-2.862h-49.692c-1.907 0-3.382 1.561-4.422 4.683-6.938 20.119-10.407 32.087-10.407 35.903s1.431 7.024 4.293 9.626 6.807 4.553 11.837 5.854 7.545 2.905 7.545 4.813-2.515 2.862-7.545 2.862zm48.391-140.75-23.415 62.44c-.347 1.041-.52 1.735-.52 2.082 0 1.214 1.821 1.821 5.463 1.821h40.326c2.428 0 3.642-.434 3.642-1.301 0-.347-.173-1.214-.52-2.602l-20.553-62.18c-1.041-3.122-1.778-4.683-2.211-4.683-.434 0-1.171 1.475-2.212 4.423z"/><path d="m851.141 35.528 44.488-2.081c33.475 0 58.278 7.631 74.408 22.894 16.13 15.264 24.196 35.253 24.196 59.969s-8.889 45.963-26.667 63.741c-17.779 17.778-39.069 26.667-63.871 26.667-.521 0-7.632-.304-21.334-.911s-24.629-.91-32.781-.91l-27.317 1.3c-5.03 0-7.545-.997-7.545-2.992 0-1.994 3.078-3.555 9.236-4.683 6.157-1.127 10.493-3.078 13.008-5.853s3.772-7.285 3.772-13.529v-117.075c0-6.07-1.257-10.45-3.772-13.138-2.515-2.689-6.851-4.597-13.008-5.724-6.158-1.127-9.236-2.905-9.236-5.333 0-1.908 2.515-2.862 7.545-2.862l27.057.52zm10.407 137.888c0 10.234 4.076 16.911 12.227 20.033 7.285 2.775 16.218 4.163 26.798 4.163 20.293 0 36.857-7.198 49.691-21.594 12.835-14.396 19.253-33.215 19.253-56.456 0-23.242-7.328-42.06-21.984-56.456s-31.524-21.594-50.603-21.594c-16.477 0-26.363 1.214-29.659 3.642-3.815 2.602-5.723 6.678-5.723 12.228z"/><path d="m1033.26 182.262c0 4.51 1.387 8.022 4.162 10.537s6.157 3.772 10.147 3.772c3.989 0 8.672-2.341 14.049-7.024 1.908-1.561 2.948-5.03 3.122-10.407l.52-12.748c.173-3.642-.607-5.464-2.341-5.464-1.215 0-2.429.261-3.643.781-17.344 5.897-26.016 12.748-26.016 20.553zm.26-59.058.26 3.643c0 1.561-2.472 3.468-7.415 5.723s-8.282 3.382-10.016 3.382c-1.735 0-2.602-.78-2.602-2.341 0-5.897 2.992-11.491 8.976-16.781s12.618-9.886 19.903-13.789c7.284-3.902 14.005-5.853 20.162-5.853 6.158 0 11.318 2.254 15.48 6.764 4.163 4.509 6.158 9.973 5.984 16.39l-1.301 56.196v1.561c0 12.315 3.122 18.472 9.366 18.472 4.336 0 7.805-1.214 10.407-3.642.694-.694 1.561-.737 2.602-.13 1.04.607 1.561 1.431 1.561 2.471v.261c-1.041 2.254-3.729 4.986-8.065 8.195-4.337 3.208-8.629 4.813-12.879 4.813-4.249 0-7.805-1.128-10.667-3.382-2.861-2.255-4.899-4.51-6.113-6.765-1.215-2.254-1.995-3.382-2.342-3.382-.694 0-2.255 1.128-4.683 3.382-2.428 2.255-6.027 4.51-10.797 6.765-4.77 2.254-10.06 3.382-15.87 3.382s-11.1-2.168-15.87-6.504-7.155-9.019-7.155-14.049c0-10.407 6.331-18.212 18.992-23.415l26.537-10.927c3.296-1.388 5.29-2.602 5.984-3.643.694-1.04 1.128-3.295 1.301-6.764l.52-16.13v-.521c0-4.509-1.431-8.412-4.292-11.707-2.862-3.296-6.158-4.943-9.887-4.943s-7.241.91-10.536 2.731c-3.296 1.822-5.377 3.513-6.244 5.074-.868 1.561-1.301 3.382-1.301 5.463z"/><path d="m1140.97 204.376-21.074 1.301c-3.469 0-5.203-.824-5.203-2.472 0-1.647 1.561-2.991 4.683-4.032s5.203-1.778 6.244-2.212c1.04-.433 2.124-1.344 3.252-2.731 1.127-1.388 1.691-3.209 1.691-5.464v-55.936c0-10.927-3.556-17.171-10.667-18.732-1.388-.346-2.081-1.431-2.081-3.252s.607-2.905 1.821-3.252c6.591-1.387 11.447-3.122 14.569-5.203 5.897-3.816 9.8-6.287 11.708-7.415 1.908-1.127 2.861-1.734 2.861-1.821s.217-.13.651-.13.824.607 1.171 1.821c0 4.683-.13 9.193-.391 13.529-.26 4.336-.26 6.504 0 6.504.261 0 .738-.434 1.431-1.301 2.429-2.948 3.99-4.683 4.683-5.203 8.326-7.458 16.304-11.187 23.936-11.187 3.642 0 6.634.78 8.975 2.341 2.342 1.561 3.513 3.642 3.513 6.244s-1.084 5.464-3.252 8.586-4.206 4.683-6.114 4.683-4.683-.781-8.326-2.342c-3.642-1.561-6.33-2.341-8.065-2.341-5.03 0-9.322 1.647-12.878 4.943-3.556 3.295-5.334 8.932-5.334 16.911v51.252c.174 4.683 4.857 8.412 14.049 11.188 3.99 1.387 5.984 2.905 5.984 4.552 0 1.648-1.734 2.472-5.203 2.472z"/><path d="m1313.46 206.197-47.35-1.3c-3.99 0-5.984-.781-5.984-2.342 0-1.908 1.908-3.556 5.723-4.943 3.816-1.388 5.724-2.949 5.724-4.683 0-.867-.607-2.081-1.821-3.642l-32.781-37.725c-.347-.52-.867-.65-1.561-.39s-1.084 1.474-1.171 3.642c-.087 2.169-.13 7.242-.13 15.22 0 7.979.087 13.962.26 17.952 0 5.376 3.036 8.932 9.106 10.667 3.989 1.387 5.984 2.905 5.984 4.552 0 1.648-1.995 2.472-5.984 2.472 0 0-6.07-.434-18.212-1.301 0 0-6.764.434-20.293 1.301-3.989 0-5.983-.824-5.983-2.472 0-1.647 1.561-2.991 4.683-4.032s5.29-1.908 6.504-2.602c3.989-1.734 5.984-4.596 5.984-8.585v-130.344c0-6.07-.911-10.536-2.732-13.398s-4.9-4.727-9.236-5.594c-1.388-.347-2.081-1.431-2.081-3.252s.607-2.905 1.821-3.252c5.203-1.214 15.436-4.683 30.699-10.407h.261l.26-.26c1.04 0 1.561.564 1.561 1.691 0 1.128-.174 3.079-.521 5.854-1.214 9.713-1.821 19.599-1.821 29.659v86.115c0 1.561.521 2.168 1.561 1.821 2.429-.52 5.464-2.341 9.106-5.463 15.61-13.702 25.496-23.502 29.659-29.399.174-.174.26-.434.26-.781 0-1.907-2.255-3.382-6.764-4.422-2.081-.694-3.122-1.388-3.122-2.082 0-2.428 1.908-3.642 5.724-3.642h12.748c3.642 0 8.585-.52 14.829-1.561s9.626-1.561 10.147-1.561c1.387 0 2.081.564 2.081 1.691s-.564 2.255-1.691 3.382c-1.127 1.128-2.298 1.865-3.512 2.212-5.03 1.04-10.32 3.252-15.87 6.634-5.551 3.382-17.432 13.051-35.643 29.008-1.908 1.561-2.168 3.036-.781 4.423 6.244 7.458 13.399 15.567 21.464 24.326s13.659 14.526 16.781 17.301c6.244 5.897 13.355 10.06 21.333 12.488 3.99 1.387 5.984 2.905 5.984 4.553 0 1.647-1.734 2.471-5.203 2.471z"/><path d="m1349.88 204.376-21.073 1.301c-3.469 0-5.204-.824-5.204-2.472 0-1.647 1.561-2.991 4.683-4.032s5.204-1.778 6.244-2.212c1.041-.433 2.125-1.344 3.252-2.731 1.128-1.388 1.692-3.209 1.692-5.464v-55.936c0-10.927-3.556-17.171-10.667-18.732-1.388-.346-2.082-1.431-2.082-3.252s.607-2.905 1.822-3.252c6.59-1.387 11.447-3.122 14.569-5.203 5.897-3.816 9.799-6.287 11.707-7.415 1.908-1.127 2.862-1.734 2.862-1.821s.217-.13.651-.13c.433 0 .823.607 1.17 1.821 0 4.683-.13 9.193-.39 13.529s-.26 6.504 0 6.504.737-.434 1.431-1.301c2.428-2.948 3.989-4.683 4.683-5.203 8.325-7.458 16.304-11.187 23.935-11.187 3.643 0 6.635.78 8.976 2.341 2.342 1.561 3.512 3.642 3.512 6.244s-1.084 5.464-3.252 8.586-4.206 4.683-6.114 4.683-4.683-.781-8.325-2.342-6.331-2.341-8.065-2.341c-5.03 0-9.323 1.647-12.878 4.943-3.556 3.295-5.334 8.932-5.334 16.911v51.252c.174 4.683 4.857 8.412 14.049 11.188 3.989 1.387 5.984 2.905 5.984 4.552 0 1.648-1.734 2.472-5.203 2.472z"/><path d="m1464.61 105.253c-20.814 0-31.22 15.003-31.22 45.009 0 13.355 3.469 25.106 10.406 35.252 6.938 10.147 15.437 15.22 25.497 15.22 13.008 0 21.94-4.77 26.797-14.309 3.469-6.765 5.203-16.824 5.203-30.18 0-13.355-3.469-25.192-10.407-35.512-6.937-10.32-15.696-15.48-26.276-15.48zm-52.554 51.253c0-15.09 5.594-28.749 16.781-40.977s24.412-18.341 39.675-18.341 28.098 5.16 38.505 15.479c10.406 10.32 15.61 23.112 15.61 38.375s-5.16 28.662-15.48 40.196-24.759 17.301-43.318 17.301c-14.743 0-27.057-4.943-36.943-14.83-9.887-9.886-14.83-22.287-14.83-37.203z"/><path d="m1593.4 105.253c-20.813 0-31.22 15.003-31.22 45.009 0 13.355 3.469 25.106 10.407 35.252 6.938 10.147 15.436 15.22 25.496 15.22 13.008 0 21.941-4.77 26.797-14.309 3.469-6.765 5.204-16.824 5.204-30.18 0-13.355-3.469-25.192-10.407-35.512s-15.697-15.48-26.277-15.48zm-52.554 51.253c0-15.09 5.594-28.749 16.781-40.977s24.412-18.341 39.676-18.341c15.263 0 28.098 5.16 38.504 15.479 10.407 10.32 15.61 23.112 15.61 38.375s-5.16 28.662-15.48 40.196-24.759 17.301-43.317 17.301c-14.743 0-27.058-4.943-36.944-14.83-9.886-9.886-14.83-22.287-14.83-37.203z"/><path d="m1704.23 94.846-1.301 16.651c0 1.734.174 2.775.521 3.122 12.488-11.621 26.19-17.431 41.106-17.431 12.141 0 20.206 5.203 24.195 15.61.868 1.907 1.778 2.861 2.732 2.861s2.819-1.604 5.594-4.813c2.775-3.208 7.631-6.287 14.569-9.236 6.938-2.948 14.352-4.422 22.244-4.422s14.179 3.599 18.862 10.796c4.683 7.198 7.025 15.654 7.025 25.367v55.415c0 3.469 1.04 5.724 3.122 6.765 2.255 1.04 5.16 2.168 8.715 3.382 3.556 1.214 5.334 2.645 5.334 4.292 0 1.648-1.735 2.472-5.204 2.472l-20.553-1.301-21.594 1.301c-3.468 0-5.203-.824-5.203-2.472 0-1.647 1.995-3.165 5.984-4.552.173 0 .52-.087 1.041-.261 5.723-1.734 9.019-4.076 9.886-7.024.173-.867.26-1.735.26-2.602v-54.635c0-6.417-2.081-12.141-6.244-17.171s-9.019-7.545-14.569-7.545c-9.193 0-16.477 2.082-21.854 6.244-5.377 4.163-8.065 10.667-8.065 19.513v53.594c0 1.908.26 3.166.78 3.773s.867 1.127 1.041 1.561c.173.433.607.823 1.301 1.17.693.347 1.17.651 1.431.911.26.26.867.52 1.821.78.954.261 1.517.477 1.691.651 1.561.694 2.775 1.041 3.642 1.041 3.989 1.387 5.984 2.905 5.984 4.552 0 1.648-1.734 2.472-5.203 2.472l-21.334-1.301-21.594 1.301c-3.469 0-5.203-.824-5.203-2.472 0-1.647 2.428-3.252 7.284-4.813 4.857-1.561 7.762-3.165 8.716-4.813.954-1.647 1.431-3.252 1.431-4.813v-54.635c0-6.417-2.081-12.141-6.244-17.171s-9.019-7.545-14.569-7.545c-9.193 0-16.434 2.038-21.724 6.114s-7.935 10.624-7.935 19.643v53.594c0 3.296.997 5.507 2.992 6.634 1.994 1.128 3.338 1.778 4.032 1.952 6.765 1.734 10.147 3.729 10.147 5.984 0 1.561-1.735 2.341-5.204 2.341l-21.073-1.301-21.074 1.301c-3.469 0-5.203-.824-5.203-2.472 0-1.647 1.431-2.948 4.293-3.902s4.509-1.474 4.943-1.561 1.344-.477 2.732-1.171c1.387-.694 2.254-1.301 2.601-1.821 1.735-1.908 2.602-3.902 2.602-5.984v-55.936c0-5.376-.694-9.626-2.081-12.748-1.388-3.122-4.076-5.116-8.065-5.984-1.388-.346-2.082-1.431-2.082-3.252s.607-2.905 1.821-3.252c7.979-1.908 16.217-5.897 24.716-11.967 2.082-1.388 3.382-2.168 3.903-2.342.52-.173 1.214.347 2.081 1.561z"/><path d="m612.127 317.941c1.786-.928 3.268-1.821 4.447-2.678 1.178-.857 1.839-1.286 1.982-1.286.142 0 .339.268.589.804.25.535.375.982.375 1.339 0 1.071-1.661 3.16-4.982 6.267s-5.964 4.661-7.928 4.661-5.018-.857-9.16-2.571c-4.143-1.715-7.071-2.572-8.785-2.572-1.715 0-3.357.429-4.929 1.286-1.571.857-2.857 1.696-3.857 2.518-1 .821-1.624 1.232-1.874 1.232s-.536-.215-.858-.643c-.321-.429-.482-.857-.482-1.286 0-.857 1.714-2.892 5.143-6.107 3.428-3.214 6.035-4.821 7.821-4.821 1.785 0 4.571.857 8.356 2.572 3.786 1.714 6.661 2.571 8.625 2.571s3.803-.429 5.517-1.286z"/><path d="m643.304 285.157 10.392-.214c2.072 0 3.107.393 3.107 1.179 0 1-1.214 1.714-3.642 2.142-2.429.429-3.982 1.215-4.661 2.357-.678 1.143-1.018 2.893-1.018 5.25v20.035c0 1.357.179 2.035.536 2.035.786 0 1.75-.643 2.893-1.928l21.427-21.856c1.071-1.071 1.607-2.196 1.607-3.375 0-1.178-.678-1.946-2.035-2.303-2.215-.572-3.322-1.268-3.322-2.089 0-.822 1.036-1.233 3.107-1.233h5.786c7.999 0 13.535-.142 16.606-.428h.75c1.571 0 2.357.393 2.357 1.178 0 1-1.179 1.715-3.536 2.143-6.714 1.214-12.142 3.571-16.285 7.071-6.856 5.786-13.713 12.464-20.57 20.035-.428.5-.25 1.142.536 1.928l25.927 27.641c2.5 2.786 4.357 4.589 5.571 5.411 1.214.821 3.143 1.517 5.785 2.089 2.643.571 3.964 1.25 3.964 2.035 0 .786-1.035 1.179-3.106 1.179l-14.892-.536-8.678.107c-2.072 0-3.107-.392-3.107-1.178s.982-1.411 2.946-1.875 2.946-1.161 2.946-2.089c0-.572-.536-1.464-1.607-2.679l-22.713-25.069c-1.214-1.215-2.035-1.822-2.464-1.822-.286 0-.429 1.429-.429 4.286s.179 9.035.536 18.534c.214 5.357 2.5 8.428 6.857 9.214 2.357.429 3.535 1.053 3.535 1.875 0 .821-1.035 1.232-3.107 1.232-2.071 0-4.035-.125-5.892-.375s-3.393-.375-4.607-.375l-13.499.75c-2.071 0-3.107-.411-3.107-1.232 0-.822 1.268-1.464 3.803-1.929 2.536-.464 4.321-1.285 5.357-2.464 1.036-1.178 1.554-3.089 1.554-5.732v-48.211c0-2.428-.518-4.178-1.554-5.25-1.036-1.071-2.821-1.839-5.357-2.303-2.535-.464-3.803-1.196-3.803-2.196 0-.786 1.036-1.179 3.107-1.179z"/><path d="m722.371 310.549c4.285 0 7.66.893 10.124 2.678 2.464 1.786 3.696 4.214 3.696 7.285 0 3.072-.767 4.982-2.303 5.732s-3.518 1.125-5.946 1.125h-17.571c-.999 0-1.696.232-2.089.697-.393.464-.589 1.553-.589 3.267 0 5 1.536 9.357 4.607 13.071s6.839 5.571 11.303 5.571 7.91-1.571 10.338-4.714c.5-.5.893-.75 1.179-.75.786 0 .929.929.429 2.786s-2.268 3.839-5.304 5.946c-3.035 2.107-6.91 3.16-11.624 3.16s-8.821-2.143-12.321-6.428c-3.499-4.285-5.249-9.696-5.249-16.231s2.053-12.035 6.16-16.499 9.16-6.696 15.16-6.696zm7.071 9.963c0-1.999-.893-3.606-2.679-4.821-1.785-1.214-3.946-1.821-6.481-1.821-2.536 0-4.929 1.018-7.179 3.053-2.249 2.036-3.374 3.875-3.374 5.518 0 1.071.678 1.607 2.035 1.607h8.785c3.357 0 5.964-.179 7.821-.536.715-.071 1.072-1.071 1.072-3z"/><path d="m752.048 299.942c-1.572-.071-2.857-.607-3.857-1.607s-1.5-2.285-1.5-3.857c0-1.571.5-2.857 1.5-3.857 1-.999 2.285-1.499 3.857-1.499 1.571 0 2.857.5 3.856 1.499 1 1 1.536 2.322 1.607 3.964-.071 1.5-.607 2.75-1.607 3.75-.999 1-2.285 1.536-3.856 1.607zm.749 54.747-8.678.536c-1.428 0-2.142-.34-2.142-1.018 0-.679 1-1.339 3-1.982 1.999-.643 3.178-1.304 3.535-1.982.357-.679.536-1.339.536-1.982v-23.249c0-4.5-1.679-7.106-5.036-7.821-.571-.143-.857-.589-.857-1.339s.25-1.196.75-1.339c3.5-.857 7.143-2.536 10.928-5.036 1.143-.714 1.786-1.071 1.929-1.071.499 0 .749.179.749.536-.642 6.571-.964 11.392-.964 14.463v24.856c0 1.428.429 2.357 1.286 2.785.928.429 2.125.893 3.589 1.393s2.196 1.089 2.196 1.768c0 .678-.714 1.018-2.142 1.018z"/><path d="m778.296 299.942c-1.571-.071-2.857-.607-3.857-1.607s-1.5-2.285-1.5-3.857c0-1.571.5-2.857 1.5-3.857 1-.999 2.286-1.499 3.857-1.499s2.857.5 3.857 1.499c1 1 1.535 2.322 1.607 3.964-.072 1.5-.607 2.75-1.607 3.75s-2.286 1.536-3.857 1.607zm.75 54.747-8.678.536c-1.429 0-2.143-.34-2.143-1.018 0-.679 1-1.339 3-1.982s3.178-1.304 3.535-1.982c.358-.679.536-1.339.536-1.982v-23.249c0-4.5-1.678-7.106-5.035-7.821-.572-.143-.857-.589-.857-1.339s.25-1.196.75-1.339c3.499-.857 7.142-2.536 10.927-5.036 1.143-.714 1.786-1.071 1.929-1.071.5 0 .75.179.75.536-.643 6.571-.964 11.392-.964 14.463v24.856c0 1.428.428 2.357 1.285 2.785.929.429 2.125.893 3.589 1.393 1.465.5 2.197 1.089 2.197 1.768 0 .678-.715 1.018-2.143 1.018z"/><path d="m831.65 317.513c0 .571-.518 1.25-1.554 2.035-1.035.786-1.982 1.179-2.839 1.179s-1.643-.357-2.357-1.072c-1.928-2.071-3.464-3.428-4.607-4.071-1.142-.643-2.964-.964-5.464-.964-3.714 0-6.606 1.607-8.678 4.821-2.071 3.214-3.107 7.232-3.107 12.053s1.59 9.249 4.768 13.285c3.178 4.035 7.267 6.053 12.267 6.053 2.143 0 3.875-.411 5.196-1.232 1.322-.821 2.732-2.196 4.232-4.125.357-.357.679-.535.964-.535.286 0 .572.16.857.482.286.321.429.66.429 1.017 0 2.143-1.875 4.34-5.625 6.589-3.749 2.25-8.035 3.375-12.856 3.375s-8.964-2.053-12.428-6.16-5.196-9.267-5.196-15.481 2.161-11.785 6.482-16.714c4.321-4.928 9.535-7.392 15.642-7.392 6.106 0 10.553 1.714 13.338 5.142.357.5.536 1.072.536 1.715z"/><path d="m845.149 354.689-8.678.536c-1.429 0-2.143-.34-2.143-1.018 0-.679.643-1.232 1.929-1.661 1.285-.428 2.178-.785 2.678-1.071 1.643-.714 2.464-1.893 2.464-3.536v-53.675c0-4.571-1.607-7.178-4.821-7.821-.571-.143-.857-.589-.857-1.339s.25-1.196.75-1.339c1.786-.429 5.928-1.857 12.428-4.286l.214-.107c.143 0 .393.25.75.75 0 .143-.071.643-.214 1.5-.5 3.143-.75 7.5-.75 13.071v18.641c0 1.929.285 3.25.857 3.964 6.071-4.499 11.463-6.749 16.177-6.749 3.5 0 6.411 1.393 8.732 4.178 2.321 2.786 3.482 6.25 3.482 10.392v22.499c0 2.286 1.464 3.857 4.393 4.714 1.642.571 2.464 1.196 2.464 1.875 0 .678-.714 1.018-2.143 1.018l-8.357-.536-8.356.536c-1.429 0-2.143-.34-2.143-1.018 0-.679.821-1.304 2.464-1.875 2.786-.857 4.178-2.428 4.178-4.714v-21.856c0-2.571-1.053-4.821-3.16-6.749-2.107-1.929-4.375-2.893-6.803-2.893-3.929 0-6.893.786-8.893 2.357-1.142.928-1.91 1.91-2.303 2.946s-.589 2.625-.589 4.768v21.748c.071 2.143 1.428 3.607 4.071 4.393 1.643.571 2.464 1.196 2.464 1.875 0 .678-.714 1.018-2.143 1.018z"/><path d="m900.11 299.942c-1.571-.071-2.857-.607-3.857-1.607s-1.5-2.285-1.5-3.857c0-1.571.5-2.857 1.5-3.857 1-.999 2.286-1.499 3.857-1.499s2.857.5 3.857 1.499c1 1 1.536 2.322 1.607 3.964-.071 1.5-.607 2.75-1.607 3.75s-2.286 1.536-3.857 1.607zm.75 54.747-8.678.536c-1.429 0-2.143-.34-2.143-1.018 0-.679 1-1.339 3-1.982s3.178-1.304 3.535-1.982c.358-.679.536-1.339.536-1.982v-23.249c0-4.5-1.678-7.106-5.035-7.821-.572-.143-.857-.589-.857-1.339s.25-1.196.75-1.339c3.499-.857 7.142-2.536 10.928-5.036 1.142-.714 1.785-1.071 1.928-1.071.5 0 .75.179.75.536-.643 6.571-.964 11.392-.964 14.463v24.856c0 1.428.428 2.357 1.285 2.785.929.429 2.125.893 3.589 1.393 1.465.5 2.197 1.089 2.197 1.768 0 .678-.715 1.018-2.143 1.018z"/><path d="m953.571 285.157 10.392-.214c2.072 0 3.107.393 3.107 1.179 0 1-1.214 1.714-3.642 2.142-2.429.429-3.982 1.215-4.661 2.357-.678 1.143-1.018 2.893-1.018 5.25v20.035c0 1.357.179 2.035.536 2.035.786 0 1.75-.643 2.893-1.928l21.427-21.856c1.071-1.071 1.607-2.196 1.607-3.375 0-1.178-.679-1.946-2.036-2.303-2.214-.572-3.321-1.268-3.321-2.089 0-.822 1.036-1.233 3.107-1.233h5.786c7.999 0 13.534-.142 16.606-.428h.75c1.571 0 2.357.393 2.357 1.178 0 1-1.179 1.715-3.536 2.143-6.714 1.214-12.142 3.571-16.285 7.071-6.856 5.786-13.713 12.464-20.57 20.035-.428.5-.25 1.142.536 1.928l25.927 27.641c2.5 2.786 4.357 4.589 5.571 5.411 1.214.821 3.143 1.517 5.785 2.089 2.643.571 3.964 1.25 3.964 2.035 0 .786-1.035 1.179-3.107 1.179l-14.892-.536-8.678.107c-2.071 0-3.107-.392-3.107-1.178s.983-1.411 2.947-1.875 2.946-1.161 2.946-2.089c0-.572-.536-1.464-1.607-2.679l-22.713-25.069c-1.214-1.215-2.036-1.822-2.464-1.822-.286 0-.429 1.429-.429 4.286s.179 9.035.536 18.534c.214 5.357 2.5 8.428 6.857 9.214 2.357.429 3.535 1.053 3.535 1.875 0 .821-1.035 1.232-3.107 1.232-2.071 0-4.035-.125-5.892-.375s-3.393-.375-4.607-.375l-13.499.75c-2.072 0-3.107-.411-3.107-1.232 0-.822 1.268-1.464 3.803-1.929 2.536-.464 4.321-1.285 5.357-2.464 1.036-1.178 1.553-3.089 1.553-5.732v-48.211c0-2.428-.517-4.178-1.553-5.25-1.036-1.071-2.821-1.839-5.357-2.303-2.535-.464-3.803-1.196-3.803-2.196 0-.786 1.035-1.179 3.107-1.179z"/><path d="m1020.42 345.582c0 1.857.571 3.304 1.714 4.339 1.143 1.036 2.536 1.554 4.179 1.554 1.642 0 3.571-.964 5.785-2.893.786-.643 1.214-2.071 1.286-4.285l.214-5.25c.071-1.5-.25-2.25-.964-2.25-.5 0-1 .107-1.5.322-7.143 2.428-10.714 5.249-10.714 8.463zm.107-24.32.107 1.5c0 .643-1.017 1.429-3.053 2.357-2.036.929-3.411 1.393-4.125 1.393s-1.071-.321-1.071-.964c0-2.429 1.232-4.732 3.696-6.91 2.464-2.179 5.196-4.072 8.196-5.679s5.768-2.41 8.303-2.41c2.536 0 4.661.928 6.375 2.785s2.535 4.107 2.464 6.75l-.536 23.141v.643c0 5.071 1.286 7.607 3.857 7.607 1.786 0 3.214-.5 4.286-1.5.285-.286.642-.304 1.071-.054.428.25.643.59.643 1.018v.107c-.429.929-1.536 2.054-3.322 3.375-1.785 1.321-3.553 1.982-5.303 1.982s-3.214-.464-4.392-1.393c-1.179-.928-2.018-1.857-2.518-2.785-.5-.929-.821-1.393-.964-1.393-.286 0-.929.464-1.929 1.393-1 .928-2.482 1.857-4.446 2.785-1.964.929-4.143 1.393-6.535 1.393-2.393 0-4.571-.893-6.536-2.678-1.964-1.786-2.946-3.714-2.946-5.786 0-4.285 2.607-7.499 7.821-9.642l10.928-4.5c1.357-.571 2.178-1.071 2.464-1.5.286-.428.464-1.357.536-2.785l.214-6.643v-.214c0-1.857-.589-3.464-1.768-4.821-1.178-1.357-2.535-2.036-4.071-2.036-1.535 0-2.982.375-4.339 1.125s-2.214 1.447-2.571 2.09c-.357.642-.536 1.392-.536 2.249z"/><path d="m1094.24 354.689-8.785.536c-1.429 0-2.143-.34-2.143-1.018 0-.679.822-1.304 2.464-1.875.072 0 .215-.036.429-.107 2.357-.714 3.714-1.679 4.071-2.893.071-.357.107-.714.107-1.071v-22.499c0-3.071-.893-5.499-2.678-7.285-1.786-1.786-4.411-2.679-7.875-2.679s-6.303.75-8.517 2.25-3.321 4.214-3.321 8.143v22.07c0 1.428.428 2.357 1.285 2.785.929.429 2.125.893 3.589 1.393 1.465.5 2.197 1.089 2.197 1.768 0 .678-.715 1.018-2.143 1.018l-8.678-.536-8.678.536c-1.429 0-2.143-.34-2.143-1.018 0-.679.589-1.214 1.768-1.607 1.178-.393 1.857-.607 2.035-.643.179-.036.554-.196 1.125-.482.572-.286.929-.536 1.072-.75.714-.786 1.071-1.607 1.071-2.464v-23.035c0-4.571-1.464-7.142-4.392-7.713-.572-.143-.858-.607-.858-1.393s.25-1.214.75-1.286c3.714-.857 7.643-2.821 11.785-5.892.072-.072.197-.107.375-.107.179 0 .375.321.59.964l-.75 6.964c0 .5.035.785.107.857 2-1.643 4.696-3.232 8.089-4.768 3.392-1.535 6.696-2.303 9.91-2.303s5.981 1.428 8.303 4.285c2.321 2.857 3.482 6.393 3.482 10.607v22.82c0 1.428.428 2.357 1.285 2.785.929.429 2.125.893 3.589 1.393 1.465.5 2.197 1.089 2.197 1.768 0 .678-.715 1.018-2.143 1.018z"/><path d="m1131.85 310.549c4.285 0 7.66.893 10.124 2.678 2.464 1.786 3.697 4.214 3.697 7.285 0 3.072-.768 4.982-2.304 5.732s-3.518 1.125-5.946 1.125h-17.57c-1 0-1.697.232-2.09.697-.392.464-.589 1.553-.589 3.267 0 5 1.536 9.357 4.607 13.071s6.839 5.571 11.303 5.571 7.91-1.571 10.339-4.714c.5-.5.892-.75 1.178-.75.786 0 .929.929.429 2.786s-2.268 3.839-5.304 5.946c-3.035 2.107-6.91 3.16-11.624 3.16s-8.821-2.143-12.321-6.428c-3.499-4.285-5.249-9.696-5.249-16.231s2.053-12.035 6.16-16.499 9.16-6.696 15.16-6.696zm7.071 9.963c0-1.999-.893-3.606-2.678-4.821-1.786-1.214-3.947-1.821-6.482-1.821-2.536 0-4.929 1.018-7.178 3.053-2.25 2.036-3.375 3.875-3.375 5.518 0 1.071.678 1.607 2.035 1.607h8.786c3.357 0 5.964-.179 7.821-.536.714-.071 1.071-1.071 1.071-3z"/><path d="m1198.06 355.439-19.499-.536c-1.642 0-2.464-.321-2.464-.964 0-.786.786-1.464 2.357-2.036 1.572-.571 2.357-1.214 2.357-1.928 0-.357-.25-.857-.75-1.5l-13.499-15.535c-.143-.214-.357-.268-.643-.16-.285.107-.446.607-.482 1.5-.036.892-.053 2.981-.053 6.267s.035 5.75.107 7.392c0 2.215 1.25 3.679 3.749 4.393 1.643.571 2.465 1.196 2.465 1.875 0 .678-.822 1.018-2.465 1.018 0 0-2.499-.179-7.499-.536 0 0-2.786.179-8.357.536-1.642 0-2.464-.34-2.464-1.018 0-.679.643-1.232 1.929-1.661 1.285-.428 2.178-.785 2.678-1.071 1.643-.714 2.464-1.893 2.464-3.536v-53.675c0-2.5-.375-4.339-1.125-5.517-.75-1.179-2.017-1.947-3.803-2.304-.571-.143-.857-.589-.857-1.339s.25-1.196.75-1.339c2.143-.5 6.357-1.929 12.642-4.286h.107l.107-.107c.429 0 .643.232.643.697 0 .464-.071 1.267-.214 2.41-.5 4-.75 8.071-.75 12.214v35.462c0 .643.214.893.643.75.999-.215 2.249-.965 3.749-2.25 6.428-5.643 10.5-9.678 12.214-12.107.071-.071.107-.178.107-.321 0-.786-.929-1.393-2.786-1.821-.857-.286-1.285-.572-1.285-.857 0-1 .785-1.5 2.357-1.5h5.249c1.5 0 3.536-.215 6.107-.643 2.572-.429 3.964-.643 4.179-.643.571 0 .857.232.857.696 0 .465-.232.929-.697 1.393-.464.464-.946.768-1.446.911-2.071.428-4.25 1.339-6.535 2.732-2.286 1.393-7.179 5.375-14.678 11.946-.786.642-.893 1.25-.321 1.821 2.571 3.071 5.517 6.41 8.838 10.017 3.322 3.607 5.625 5.982 6.911 7.125 2.571 2.428 5.499 4.142 8.785 5.142 1.643.572 2.464 1.197 2.464 1.875 0 .679-.714 1.018-2.143 1.018z"/><path d="m1224.52 313.87c-8.571 0-12.857 6.178-12.857 18.535 0 5.499 1.429 10.338 4.286 14.517 2.857 4.178 6.357 6.267 10.499 6.267 5.357 0 9.035-1.964 11.035-5.892 1.429-2.786 2.143-6.929 2.143-12.428 0-5.5-1.428-10.375-4.285-14.624-2.857-4.25-6.464-6.375-10.821-6.375zm-21.642 21.106c0-6.214 2.304-11.839 6.911-16.874 4.606-5.035 10.053-7.553 16.338-7.553s11.571 2.125 15.856 6.374c4.286 4.25 6.428 9.518 6.428 15.803s-2.125 11.803-6.374 16.553c-4.25 4.749-10.196 7.124-17.839 7.124-6.071 0-11.142-2.035-15.213-6.107-4.071-4.071-6.107-9.178-6.107-15.32z"/><path d="m1291.05 285.05 11.892-.642c8.071 0 14.677 1.714 19.82 5.142 5.142 3.428 7.714 8 7.714 13.714 0 6.999-2.107 12.82-6.321 17.463-4.214 4.642-10.25 6.964-18.106 6.964-1.429 0-2.59-.215-3.482-.643-.893-.429-1.34-.893-1.34-1.393 0-.286.197-.554.59-.803.393-.25.768-.375 1.125-.375l1.607.214c1.071.143 2.178.25 3.321.321 8.642 0 12.963-6.392 12.963-19.177 0-6.286-1.607-10.928-4.821-13.928s-7.571-4.5-13.07-4.5c-4.571 0-6.857 1.5-6.857 4.5v51.104c0 5.357 2.393 8.464 7.178 9.321 2.357.429 3.536 1.053 3.536 1.875 0 .821-1.036 1.232-3.107 1.232-2.072 0-4.036-.125-5.893-.375s-3.393-.375-4.607-.375l-13.927.75c-2.072 0-3.107-.411-3.107-1.232 0-.822 1.285-1.464 3.856-1.929 2.572-.464 4.465-1.285 5.679-2.464 1.214-1.178 1.821-3.053 1.821-5.624v-45.212c0-3.428-.446-5.964-1.339-7.607-.893-1.642-2.571-2.678-5.036-3.107-2.464-.428-3.696-1.142-3.696-2.142 0-.786 1.036-1.179 3.107-1.179z"/><path d="m1345.58 354.689-8.678.536c-1.429 0-2.143-.34-2.143-1.018 0-.679.643-1.232 1.929-1.661 1.285-.428 2.178-.785 2.678-1.071 1.643-.714 2.464-1.893 2.464-3.536v-53.675c0-4.571-1.607-7.178-4.821-7.821-.571-.143-.857-.589-.857-1.339s.25-1.196.75-1.339c1.786-.429 5.928-1.857 12.428-4.286l.214-.107c.143 0 .393.25.75.75 0 .143-.071.643-.214 1.5-.5 3.143-.75 7.5-.75 13.071v18.641c0 1.929.285 3.25.857 3.964 6.071-4.499 11.463-6.749 16.177-6.749 3.5 0 6.411 1.393 8.732 4.178 2.321 2.786 3.482 6.25 3.482 10.392v22.499c0 2.286 1.464 3.857 4.393 4.714 1.642.571 2.464 1.196 2.464 1.875 0 .678-.715 1.018-2.143 1.018l-8.357-.536-8.356.536c-1.429 0-2.143-.34-2.143-1.018 0-.679.821-1.304 2.464-1.875 2.786-.857 4.178-2.428 4.178-4.714v-21.856c0-2.571-1.053-4.821-3.16-6.749-2.107-1.929-4.375-2.893-6.803-2.893-3.929 0-6.893.786-8.893 2.357-1.142.928-1.91 1.91-2.303 2.946s-.589 2.625-.589 4.768v21.748c.071 2.143 1.428 3.607 4.071 4.393 1.643.571 2.464 1.196 2.464 1.875 0 .678-.714 1.018-2.143 1.018z"/><path d="m1413.29 313.87c-8.571 0-12.856 6.178-12.856 18.535 0 5.499 1.428 10.338 4.285 14.517 2.857 4.178 6.357 6.267 10.5 6.267 5.356 0 9.035-1.964 11.035-5.892 1.428-2.786 2.142-6.929 2.142-12.428 0-5.5-1.428-10.375-4.285-14.624-2.857-4.25-6.464-6.375-10.821-6.375zm-21.641 21.106c0-6.214 2.303-11.839 6.91-16.874s10.053-7.553 16.338-7.553 11.571 2.125 15.856 6.374c4.286 4.25 6.429 9.518 6.429 15.803s-2.125 11.803-6.375 16.553c-4.25 4.749-10.196 7.124-17.838 7.124-6.071 0-11.142-2.035-15.214-6.107-4.071-4.071-6.106-9.178-6.106-15.32z"/><path d="m1461.18 356.403c-3.5 0-6.232-1.053-8.196-3.16s-2.946-5.304-2.946-9.589v-24.856c0-.643-.268-1.071-.804-1.285-.535-.215-1.625-.322-3.267-.322-.215 0-.482-.268-.804-.803-.321-.536-.482-.964-.482-1.286 0-.321.179-.589.536-.803 1.643-.5 3.321-1.536 5.035-3.107 1.714-1.572 3.107-3.036 4.178-4.393 1.072-1.357 1.715-2.036 1.929-2.036 1 0 1.5.358 1.5 1.072l-.214 4.714c0 1 .857 1.5 2.571 1.5h12.213c.715 0 1.072.857 1.072 2.571s-.357 2.571-1.072 2.571h-10.606c-1.929 0-3.125.143-3.589.429s-.697 1.143-.697 2.571v20.249c0 3.642.679 6.232 2.036 7.767 1.357 1.536 3.036 2.304 5.035 2.304 3.572 0 6.25-.679 8.036-2.036.285-.214.535-.161.75.161.214.321.321.714.321 1.178 0 .465-.571 1.214-1.714 2.25s-2.732 2.018-4.768 2.946c-2.035.929-4.053 1.393-6.053 1.393z"/><path d="m1499.97 313.87c-8.57 0-12.856 6.178-12.856 18.535 0 5.499 1.429 10.338 4.286 14.517 2.856 4.178 6.356 6.267 10.499 6.267 5.357 0 9.035-1.964 11.035-5.892 1.428-2.786 2.143-6.929 2.143-12.428 0-5.5-1.429-10.375-4.286-14.624-2.857-4.25-6.464-6.375-10.821-6.375zm-21.641 21.106c0-6.214 2.303-11.839 6.91-16.874s10.053-7.553 16.338-7.553c6.286 0 11.571 2.125 15.857 6.374 4.285 4.25 6.428 9.518 6.428 15.803s-2.125 11.803-6.375 16.553c-4.25 4.749-10.196 7.124-17.838 7.124-6.071 0-11.142-2.035-15.213-6.107-4.072-4.071-6.107-9.178-6.107-15.32z"/><path d="m1536.39 369.26c0 3.642 1.232 6.624 3.696 8.945 2.464 2.322 5.803 3.482 10.017 3.482s7.893-1.428 11.035-4.285c3.143-2.857 4.714-6.464 4.714-10.821 0-1.785-.875-3.285-2.625-4.5-1.749-1.214-3.839-2.053-6.267-2.517-2.428-.465-5.821-.804-10.178-1.018h-2.464c-.857.571-2.643 2.214-5.357 4.928-1.714 2-2.571 3.928-2.571 5.786zm22.82-42.534c0-3.499-.964-6.571-2.893-9.213-1.928-2.643-4.321-3.964-7.178-3.964s-5.143 1.339-6.857 4.017c-1.714 2.679-2.571 5.625-2.571 8.839s.946 6.25 2.839 9.107 4.232 4.285 7.018 4.285c2.785 0 5.089-1.321 6.91-3.964s2.732-5.678 2.732-9.107zm8.356-13.07 3.429-.107c.857 0 1.607.035 2.25.107.643.071.964.732.964 1.982s-.321 1.875-.964 1.875c-2.643 0-4.143.071-4.5.214s-.643.268-.857.375-.464.196-.75.268c-.286.785-.429 2.428-.429 4.928 0 5.357-1.714 10.071-5.142 14.142-3.429 4.071-7.714 6.107-12.857 6.107-2.285 0-4.214-.429-5.785-1.286-3.143 2.429-4.714 4.178-4.714 5.25 0 2.285 3.428 3.75 10.285 4.392 9.285.858 14.731 1.643 16.338 2.357 1.608.715 3.054 1.465 4.34 2.25 2.142 1.357 3.214 3.572 3.214 6.643 0 5.714-2.59 10.946-7.768 15.695-5.178 4.75-10.499 7.125-15.963 7.125s-10.142-.964-14.035-2.893c-3.893-1.928-5.839-5.035-5.839-9.321 0-2.214.554-4.124 1.661-5.732 1.107-1.607 2.964-3.231 5.571-4.874s4.446-3.286 5.517-4.929c-2.428-.499-4.642-1.41-6.642-2.731-2-1.322-3-3.09-3-5.304 0-1.357.821-2.678 2.464-3.964.429-.285 1.107-.714 2.036-1.285 1.928-1.143 3.357-2.357 4.285-3.643-1-.214-2.357-1.143-4.071-2.786-3.5-3.285-5.25-7.249-5.25-11.892 0-4.642 1.929-8.517 5.786-11.624s8.285-4.66 13.285-4.66c1.785 0 3.892.392 6.321 1.178 4.499 1.429 8.106 2.143 10.82 2.143z"/><path d="m1588.14 354.689-8.678.536c-1.429 0-2.143-.34-2.143-1.018 0-.679.643-1.232 1.928-1.661 1.286-.428 2.143-.732 2.572-.91.428-.179.875-.554 1.339-1.125.464-.572.696-1.322.696-2.25v-23.035c0-4.499-1.464-7.071-4.392-7.713-.572-.143-.857-.59-.857-1.34 0-.749.249-1.196.749-1.339 2.715-.571 4.714-1.285 6-2.142 2.429-1.572 4.036-2.59 4.821-3.054.786-.464 1.179-.714 1.179-.75s.089-.053.268-.053c.178 0 .339.25.482.75 0 1.928-.054 3.785-.161 5.571-.107 1.785-.107 2.678 0 2.678s.304-.178.589-.536c1-1.214 1.643-1.928 1.929-2.142 3.428-3.072 6.714-4.607 9.856-4.607 1.5 0 2.732.321 3.696.964.965.643 1.447 1.5 1.447 2.571 0 1.072-.447 2.25-1.339 3.536-.893 1.285-1.732 1.928-2.518 1.928s-1.929-.321-3.428-.964c-1.5-.643-2.607-.964-3.322-.964-2.071 0-3.839.678-5.303 2.035s-2.196 3.679-2.196 6.964v21.106c.071 1.929 2 3.464 5.785 4.607 1.643.571 2.464 1.196 2.464 1.875 0 .678-.714 1.018-2.142 1.018z"/><path d="m1622.32 345.582c0 1.857.572 3.304 1.714 4.339 1.143 1.036 2.536 1.554 4.179 1.554 1.642 0 3.571-.964 5.785-2.893.786-.643 1.214-2.071 1.286-4.285l.214-5.25c.071-1.5-.25-2.25-.964-2.25-.5 0-1 .107-1.5.322-7.143 2.428-10.714 5.249-10.714 8.463zm.107-24.32.107 1.5c0 .643-1.017 1.429-3.053 2.357-2.036.929-3.41 1.393-4.125 1.393-.714 0-1.071-.321-1.071-.964 0-2.429 1.232-4.732 3.696-6.91 2.464-2.179 5.196-4.072 8.196-5.679s5.768-2.41 8.303-2.41c2.536 0 4.661.928 6.375 2.785s2.535 4.107 2.464 6.75l-.536 23.141v.643c0 5.071 1.286 7.607 3.857 7.607 1.786 0 3.214-.5 4.286-1.5.285-.286.642-.304 1.071-.054.428.25.643.59.643 1.018v.107c-.429.929-1.536 2.054-3.321 3.375-1.786 1.321-3.554 1.982-5.304 1.982s-3.214-.464-4.392-1.393c-1.179-.928-2.018-1.857-2.518-2.785-.5-.929-.821-1.393-.964-1.393-.286 0-.929.464-1.929 1.393-1 .928-2.482 1.857-4.446 2.785-1.964.929-4.142 1.393-6.535 1.393s-4.571-.893-6.536-2.678c-1.964-1.786-2.946-3.714-2.946-5.786 0-4.285 2.607-7.499 7.821-9.642l10.928-4.5c1.357-.571 2.179-1.071 2.464-1.5.286-.428.464-1.357.536-2.785l.214-6.643v-.214c0-1.857-.589-3.464-1.768-4.821-1.178-1.357-2.535-2.036-4.071-2.036-1.535 0-2.982.375-4.339 1.125s-2.214 1.447-2.571 2.09c-.357.642-.536 1.392-.536 2.249z"/><path d="m1665.6 384.901-8.571.536c-1.5 0-2.25-.339-2.25-1.018 0-.678 1-1.339 3-1.982s3.179-1.303 3.536-1.982c.357-.678.535-1.339.535-1.982v-54.318c0-1.214-.428-2.732-1.285-4.553s-2.071-2.911-3.643-3.268c-.571-.143-.857-.589-.857-1.339s.25-1.196.75-1.339c3-.714 7.142-2.143 12.428-4.286l.107-.107h.107c.429 0 .643.322.643.964l-.536 6.429c0 .571.036.892.107.964 1.357-1.357 3.839-2.875 7.446-4.553 3.607-1.679 6.911-2.518 9.911-2.518 5.285 0 9.535 2.035 12.749 6.107 3.214 4.071 4.821 8.785 4.821 14.142 0 6.571-2.375 12.481-7.125 17.731-4.749 5.249-10.41 7.874-16.981 7.874-1.571 0-3.5-.339-5.785-1.018-2.286-.678-3.929-1.482-4.928-2.41-.286 0-.429 1.821-.429 5.464v20.034c0 1.072.411 1.839 1.232 2.304.821.464 1.429.767 1.821.91.393.143.982.286 1.768.429 2.571.643 3.857 1.428 3.857 2.357 0 .643-.786.964-2.357.964zm3.857-58.817-.107 6.856c0 3.429.089 6.839.268 10.232.178 3.392 1.125 5.892 2.839 7.499s4.928 2.411 9.642 2.411c2.714 0 5.571-1.321 8.571-3.964 1.5-1.357 2.768-3.339 3.803-5.946 1.036-2.607 1.554-5.714 1.554-9.321s-.518-6.767-1.554-9.482c-1.035-2.714-2.374-4.678-4.017-5.892-3.071-2.071-6.196-3.107-9.375-3.107-3.178 0-6.124 1.036-8.838 3.107-1.643 1.214-2.572 3.75-2.786 7.607z"/><path d="m1721.2 354.689-8.678.536c-1.429 0-2.143-.34-2.143-1.018 0-.679.643-1.232 1.929-1.661 1.285-.428 2.178-.785 2.678-1.071 1.643-.714 2.464-1.893 2.464-3.536v-53.675c0-4.571-1.607-7.178-4.821-7.821-.571-.143-.857-.589-.857-1.339s.25-1.196.75-1.339c1.786-.429 5.928-1.857 12.428-4.286l.214-.107c.143 0 .393.25.75.75 0 .143-.071.643-.214 1.5-.5 3.143-.75 7.5-.75 13.071v18.641c0 1.929.285 3.25.857 3.964 6.071-4.499 11.463-6.749 16.177-6.749 3.5 0 6.411 1.393 8.732 4.178 2.321 2.786 3.482 6.25 3.482 10.392v22.499c0 2.286 1.464 3.857 4.393 4.714 1.642.571 2.464 1.196 2.464 1.875 0 .678-.715 1.018-2.143 1.018l-8.357-.536-8.356.536c-1.429 0-2.143-.34-2.143-1.018 0-.679.821-1.304 2.464-1.875 2.786-.857 4.178-2.428 4.178-4.714v-21.856c0-2.571-1.053-4.821-3.16-6.749-2.107-1.929-4.375-2.893-6.803-2.893-3.929 0-6.893.786-8.893 2.357-1.142.928-1.91 1.91-2.303 2.946s-.589 2.625-.589 4.768v21.748c.071 2.143 1.428 3.607 4.071 4.393 1.643.571 2.464 1.196 2.464 1.875 0 .678-.714 1.018-2.143 1.018z"/><path d="m1800.81 312.049 6.321-.536c1.429 0 2.143.339 2.143 1.018 0 .678-.678 1.25-2.036 1.714-1.357.464-2.642 1.375-3.856 2.732-1.215 1.357-2.179 2.893-2.893 4.607l-14.571 34.712c-.071.214-.66 1.643-1.767 4.285-1.107 2.643-2.482 5.964-4.125 9.964s-3.107 7.482-4.393 10.446c-1.285 2.964-3.607 4.446-6.964 4.446-1.357 0-2.607-.357-3.749-1.071-1.143-.714-1.715-1.643-1.715-2.786 0-2.143.965-3.214 2.893-3.214l4.286.643c.857 0 1.535-.393 2.035-1.179 3.286-5.642 6.535-12.713 9.75-21.213.214-.642.321-1.535.321-2.678s-.143-2.107-.429-2.893l-12.427-31.391c-1.215-2.928-2.822-4.678-4.822-5.249-1.642-.572-2.464-1.197-2.464-1.875 0-.679.715-1.018 2.143-1.018l7.821.536 8.142-.536c1.429 0 2.143.393 2.143 1.179 0 .999-1.036 1.785-3.107 2.357-1.428.428-2.143 1.571-2.143 3.428 0 .643.286 1.643.858 3l8.463 20.998c.572 1.358 1.107 1.322 1.607-.107l7.178-19.07c.572-1.286.858-2.803.858-4.553s-.875-3-2.625-3.75-2.625-1.518-2.625-2.303c0-.786.714-1.179 2.143-1.179z"/><path d="m1849.55 317.941c1.786-.928 3.268-1.821 4.447-2.678 1.178-.857 1.839-1.286 1.982-1.286.142 0 .339.268.589.804.25.535.375.982.375 1.339 0 1.071-1.661 3.16-4.982 6.267s-5.964 4.661-7.928 4.661-5.018-.857-9.16-2.571c-4.143-1.715-7.071-2.572-8.786-2.572-1.714 0-3.356.429-4.928 1.286-1.571.857-2.857 1.696-3.857 2.518-1 .821-1.625 1.232-1.875 1.232s-.535-.215-.857-.643c-.321-.429-.482-.857-.482-1.286 0-.857 1.714-2.892 5.143-6.107 3.428-3.214 6.035-4.821 7.821-4.821 1.785 0 4.571.857 8.356 2.572 3.786 1.714 6.661 2.571 8.625 2.571s3.803-.429 5.517-1.286z"/></g></g></svg>